<svg width="29" height="36" viewBox="0 0 29 36" fill="none" xmlns="http://www.w3.org/2000/svg">
<path fill-rule="evenodd" clip-rule="evenodd" d="M21.0645 1.01821C21.0645 2.78782 20.4681 4.43902 19.2751 5.97274C17.8135 7.81221 16.1488 8.63827 14.2809 8.45001C14.2587 8.33116 14.2472 8.21957 14.2472 8.11251V7.77728C14.2472 6.07844 14.8552 4.48711 16.0694 2.99966C16.6778 2.24618 17.4481 1.62017 18.3811 1.1239C19.3155 0.629448 20.198 0.357724 21.0308 0.310547C21.053 0.42849 21.0645 0.54598 21.0645 0.664831V1.01821ZM27.1718 12.3417C24.6973 13.9457 23.4818 16.1867 23.5279 19.0654C23.5505 21.2827 24.3044 23.1471 25.7874 24.6546C26.4619 25.3391 27.2157 25.8721 28.0481 26.2486C27.9581 26.5321 27.8681 26.8084 27.7785 27.0797C27.6876 27.3509 27.5865 27.6158 27.4752 27.8753C27.2365 28.494 26.9605 29.0968 26.6486 29.6803C26.3578 30.2222 26.0482 30.7533 25.7204 31.2725C25.327 31.8747 24.916 32.4647 24.488 33.0417C24.1173 33.5371 23.7736 33.9258 23.4601 34.2103C22.559 35.0821 21.5922 35.5426 20.5572 35.5888C19.8601 35.5888 18.9594 35.3534 17.8578 34.8803C16.8667 34.433 15.9115 34.2098 14.9896 34.2098C13.9993 34.2098 13.0086 34.4343 12.0197 34.8803C10.962 35.3534 10.1079 35.6006 9.45606 35.6251C8.44231 35.6732 7.45384 35.2005 6.48532 34.2103C5.81259 33.5724 5.02235 32.5581 4.12346 31.1659C3.11237 29.634 2.27866 27.8531 1.62633 25.824C0.929215 23.6997 0.581543 21.5771 0.581543 19.4541C0.581543 17.0957 1.05294 15.0666 1.99884 13.3674C2.74075 12.0006 3.73011 10.9205 4.96736 10.1298C6.20417 9.34003 7.54342 8.93313 8.98289 8.90909C9.83788 8.90909 10.8734 9.16856 12.0871 9.68751C13.3035 10.2078 14.1244 10.4659 14.5519 10.4659C14.7541 10.4659 15.6658 10.1606 17.2853 9.54643C18.7909 8.9794 20.0286 8.74533 20.9967 8.83832C23.7182 9.09916 25.7763 10.2659 27.1718 12.3417Z" fill="white"/>
</svg>
