<svg width="11" height="8" viewBox="0 0 11 8" fill="none" xmlns="http://www.w3.org/2000/svg">
<path d="M0.430541 1.2842C0.348115 1.37716 0.282691 1.48777 0.238044 1.60962C0.193397 1.73148 0.17041 1.86219 0.17041 1.9942C0.17041 2.12621 0.193397 2.25692 0.238044 2.37878C0.282691 2.50064 0.348115 2.61124 0.430541 2.7042L4.82765 7.7042C4.9094 7.79793 5.00667 7.87232 5.11383 7.92309C5.221 7.97386 5.33594 8 5.45204 8C5.56813 8 5.68308 7.97386 5.79024 7.92309C5.89741 7.87232 5.99467 7.79793 6.07643 7.7042L10.4735 2.7042C10.556 2.61124 10.6214 2.50064 10.666 2.37878C10.7107 2.25692 10.7337 2.12621 10.7337 1.9942C10.7337 1.86219 10.7107 1.73148 10.666 1.60962C10.6214 1.48777 10.556 1.37716 10.4735 1.2842C10.3918 1.19047 10.2945 1.11608 10.1873 1.06531C10.0802 1.01454 9.96524 0.988403 9.84914 0.988403C9.73305 0.988403 9.6181 1.01454 9.51094 1.06531C9.40377 1.11608 9.30651 1.19047 9.22475 1.2842L5.45204 5.5842L1.67932 1.2842C1.59757 1.19047 1.5003 1.11608 1.39314 1.06531C1.28597 1.01454 1.17102 0.988403 1.05493 0.988403C0.938837 0.988403 0.823891 1.01454 0.716726 1.06531C0.60956 1.11608 0.512295 1.19047 0.430541 1.2842Z" fill="black"/>
</svg>
