<svg width="30" height="31" viewBox="0 0 30 31" fill="none" xmlns="http://www.w3.org/2000/svg">
<g id="Group 30">
<path id="Combined Shape" fill-rule="evenodd" clip-rule="evenodd" d="M5 0.5C2.23858 0.5 0 2.73858 0 5.5V25.5C0 28.2614 2.23858 30.5 5 30.5H25C27.7614 30.5 30 28.2614 30 25.5V5.5C30 2.73858 27.7614 0.5 25 0.5H5ZM16.3205 15.9749V20.8226L14.2976 20.8216V15.9749H12.5806V14.0833H14.2966V12.6651C14.2341 12.0004 14.4766 11.3427 14.9601 10.8652C15.4437 10.3876 16.1198 10.1382 16.8105 10.1825C17.2317 10.1825 17.6288 10.2054 17.9273 10.2226C18.1072 10.233 18.2513 10.2413 18.3434 10.2413V11.9555H17.3015C16.5045 11.9555 16.3205 12.3691 16.3205 12.9013V14.0833H18.2824L18.0375 15.9749H16.3205Z" fill="white"/>
</g>
</svg>
