<svg width="30" height="31" viewBox="0 0 30 31" fill="none" xmlns="http://www.w3.org/2000/svg">
<g id="Group 31">
<path id="Combined Shape" fill-rule="evenodd" clip-rule="evenodd" d="M5 0.5C2.23858 0.5 0 2.73858 0 5.5V25.5C0 28.2614 2.23858 30.5 5 30.5H25C27.7614 30.5 30 28.2614 30 25.5V5.5C30 2.73858 27.7614 0.5 25 0.5H5ZM12.8187 10.2473C13.5432 10.1822 14.2711 10.1626 14.9981 10.1886C15.726 10.1625 16.4549 10.1821 17.1804 10.2473C17.6237 10.2458 18.0636 10.3254 18.4784 10.482C18.8361 10.5979 19.1602 10.7994 19.4223 11.0689C19.6958 11.3324 19.9001 11.6593 20.0171 12.0207C20.174 12.4354 20.2539 12.8753 20.2528 13.3187C20.3178 14.0432 20.3374 14.7711 20.3115 15.498C20.3115 16.359 20.2898 16.7629 20.2728 17.0793C20.2618 17.283 20.2528 17.4504 20.2528 17.6803C20.2539 18.1255 20.1733 18.5671 20.0151 18.9832C19.7671 19.7032 19.2014 20.269 18.4813 20.517C18.0666 20.674 17.6267 20.7538 17.1833 20.7527C16.4578 20.8179 15.729 20.8375 15.001 20.8114C14.2731 20.8375 13.5442 20.8179 12.8187 20.7527C12.3722 20.7523 11.9295 20.6697 11.5129 20.5092C11.1551 20.3933 10.8311 20.1918 10.5689 19.9223C10.2994 19.6601 10.0979 19.3361 9.98202 18.9783C9.82541 18.5636 9.74585 18.1237 9.74726 17.6803C9.68212 16.9548 9.66252 16.226 9.68857 15.498C9.66264 14.7711 9.68224 14.0432 9.74726 13.3187C9.71517 12.8706 9.79588 12.4217 9.98202 12.0128C10.0979 11.6551 10.2994 11.3311 10.5689 11.0689C10.8325 10.7987 11.1583 10.5972 11.5178 10.482C11.9335 10.3251 12.3744 10.2455 12.8187 10.2473ZM17.1217 11.1912C16.4159 11.1254 15.7065 11.1058 14.9981 11.1325C14.2883 11.1073 13.5776 11.1285 12.8706 11.1961C12.5282 11.1919 12.1881 11.252 11.8679 11.3731C11.6279 11.4332 11.4187 11.5803 11.281 11.7859C11.1111 11.9567 10.9715 12.1551 10.8682 12.3728C10.7471 12.693 10.687 13.0331 10.6912 13.3754C10.6254 14.0813 10.6058 14.7906 10.6325 15.499C10.6325 16.3767 10.6551 16.7783 10.6722 17.0833V17.0833C10.6827 17.2702 10.6912 17.4209 10.6912 17.6226C10.6872 17.9646 10.7472 18.3044 10.8682 18.6243C11.0746 19.0663 11.4304 19.4214 11.8728 19.6269C12.193 19.748 12.5331 19.8081 12.8755 19.8039C13.5813 19.8697 14.2907 19.8893 14.9991 19.8626C15.8768 19.8626 16.2783 19.84 16.5833 19.8229H16.5834H16.5834H16.5834C16.7703 19.8124 16.9209 19.8039 17.1227 19.8039C17.4647 19.808 17.8044 19.7479 18.1243 19.6269C18.5659 19.4212 18.9209 19.0666 19.1269 18.6252C19.2481 18.305 19.3082 17.9649 19.304 17.6226C19.3698 16.9165 19.3894 16.2068 19.3627 15.498C19.3627 14.6203 19.3401 14.2188 19.323 13.9138V13.9138V13.9137C19.3125 13.7269 19.304 13.5762 19.304 13.3745C19.3083 13.0318 19.2482 12.6914 19.1269 12.3709C18.9211 11.9291 18.566 11.5741 18.1243 11.3682C17.8041 11.2471 17.464 11.187 17.1217 11.1912ZM14.9981 12.7846C14.2749 12.7729 13.5779 13.055 13.0664 13.5664C12.555 14.0778 12.2729 14.7749 12.2846 15.498C12.2846 16.9966 13.4995 18.2115 14.9981 18.2115C16.4967 18.2115 17.7115 16.9966 17.7115 15.498C17.7115 13.9995 16.4967 12.7846 14.9981 12.7846ZM13.737 16.7594C14.0708 17.0933 14.526 17.2771 14.9981 17.2685V17.2675C15.47 17.2761 15.925 17.0924 16.2588 16.7587C16.5925 16.425 16.7762 15.9699 16.7676 15.498C16.7762 15.0262 16.5925 14.5711 16.2588 14.2374C15.925 13.9036 15.47 13.72 14.9981 13.7285C14.5262 13.72 14.0711 13.9036 13.7374 14.2374C13.4037 14.5711 13.22 15.0262 13.2286 15.498C13.2197 15.9701 13.4033 16.4254 13.737 16.7594ZM17.8299 12.0177C17.4717 12.0177 17.1814 12.3081 17.1814 12.6663C17.1814 13.0244 17.4717 13.3148 17.8299 13.3148C18.1881 13.3148 18.4784 13.0244 18.4784 12.6663C18.4752 12.3094 18.1867 12.0209 17.8299 12.0177Z" fill="white"/>
</g>
</svg>
