<svg width="30" height="31" viewBox="0 0 30 31" fill="none" xmlns="http://www.w3.org/2000/svg">
<g id="Group 29">
<path id="Combined Shape" fill-rule="evenodd" clip-rule="evenodd" d="M5 0.5C2.23858 0.5 0 2.73858 0 5.5V25.5C0 28.2614 2.23858 30.5 5 30.5H25C27.7614 30.5 30 28.2614 30 25.5V5.5C30 2.73858 27.7614 0.5 25 0.5H5ZM10.6452 10.1774C10.0738 10.1774 9.67742 10.5825 9.67742 11.1452C9.67742 11.7078 10.0738 12.1129 10.6452 12.1129C11.2165 12.1129 11.6129 11.7078 11.6129 11.1452C11.6129 10.5825 11.2165 10.1774 10.6452 10.1774ZM9.67742 13.0806V20.8226H11.6129V13.0806H9.67742ZM13.5484 20.8226V13.166H15.4911V14.5038C15.9704 13.5503 16.7778 13.0949 17.8374 13.0806C19.3512 13.0806 20.3226 14.2192 20.3226 16.0123V20.8226H18.3799V16.6528C18.3799 15.685 17.8753 15.0873 17.0427 15.0873C16.0714 15.1015 15.4911 15.9269 15.4911 17.0512V20.8226H13.5484Z" fill="white"/>
</g>
</svg>
