<svg width="201" height="41" viewBox="0 0 201 41" fill="none" xmlns="http://www.w3.org/2000/svg">
<path fill-rule="evenodd" clip-rule="evenodd" d="M47.4854 9.15178C47.4854 7.9248 47.9424 6.89151 48.8563 6.05198C49.7704 5.21249 50.98 4.79272 52.4854 4.79272C53.9907 4.79272 55.2005 5.21249 56.1144 6.05198C57.0284 6.89151 57.4854 7.9248 57.4854 9.15178C57.4854 10.3788 57.0284 11.412 56.1144 12.2515C55.2005 13.0911 53.9907 13.5108 52.4854 13.5108C50.98 13.5108 49.7704 13.0911 48.8563 12.2515C47.9424 11.412 47.4854 10.3788 47.4854 9.15178ZM57.0552 39.1808C56.661 39.2454 56.0786 39.3342 55.308 39.4472C54.5373 39.5603 53.7578 39.6168 52.9692 39.6168C52.1807 39.6168 51.4728 39.5683 50.8456 39.4714C50.2184 39.3746 49.6897 39.1808 49.2596 38.8902C48.8294 38.5996 48.4979 38.2041 48.265 37.7036C48.032 37.2031 47.9155 36.5492 47.9155 35.7421V16.0294C48.3097 15.9649 48.8921 15.876 49.6628 15.763C50.4334 15.65 51.213 15.5935 52.0015 15.5935C52.79 15.5935 53.4979 15.642 54.1252 15.7388C54.7524 15.8357 55.281 16.0294 55.7111 16.32C56.1413 16.6106 56.4728 17.0062 56.7058 17.5067C56.9387 18.0071 57.0552 18.661 57.0552 19.4682V39.1808Z" fill="#1E2F67"/>
<path fill-rule="evenodd" clip-rule="evenodd" d="M66.9222 39.1807C66.5993 39.2776 66.0907 39.3744 65.3965 39.4713C64.7024 39.5682 63.9839 39.6166 63.2412 39.6166C62.5309 39.6166 61.8931 39.5682 61.3281 39.4713C60.7631 39.3744 60.2868 39.1807 59.8993 38.8901C59.5118 38.5995 59.2132 38.2039 59.0033 37.7035C58.7934 37.203 58.6885 36.5491 58.6885 35.7419V21.2117C58.6885 20.4691 58.8257 19.8314 59.1001 19.2986C59.3746 18.7658 59.7701 18.2895 60.2868 17.8698C60.8034 17.45 61.4411 17.0706 62.1999 16.7316C62.9587 16.3926 63.774 16.0938 64.6458 15.8355C65.5176 15.5772 66.4217 15.3754 67.3582 15.2301C68.2945 15.0848 69.2309 15.0122 70.1673 15.0122C71.7172 15.0122 72.9441 15.3108 73.8482 15.9082C74.7524 16.5055 75.2044 17.4823 75.2044 18.8385C75.2044 19.2905 75.1398 19.7345 75.0107 20.1703C74.8815 20.6063 74.7201 21.0019 74.5264 21.357C73.8482 21.357 73.1541 21.3893 72.4437 21.4539C71.7333 21.5184 71.0391 21.6153 70.361 21.7445C69.683 21.8736 69.0453 22.0109 68.4479 22.1562C67.8505 22.3014 67.342 22.471 66.9222 22.6648V39.1807Z" fill="#1E2F67"/>
<path fill-rule="evenodd" clip-rule="evenodd" d="M99.3876 27.4598C99.3876 29.4618 99.0809 31.2458 98.4675 32.8119C97.8539 34.3778 96.9902 35.6937 95.8762 36.7592C94.7622 37.8247 93.4303 38.6319 91.8804 39.1809C90.3306 39.7298 88.603 40.0042 86.698 40.0042C84.7929 40.0042 83.0654 39.7137 81.5156 39.1325C79.9657 38.5513 78.6337 37.7198 77.5198 36.6381C76.4058 35.5564 75.542 34.2406 74.9285 32.6908C74.315 31.1408 74.0083 29.3972 74.0083 27.4598C74.0083 25.5548 74.315 23.8274 74.9285 22.2774C75.542 20.7276 76.4058 19.4118 77.5198 18.3301C78.6337 17.2483 79.9657 16.4169 81.5156 15.8357C83.0654 15.2545 84.7929 14.9639 86.698 14.9639C88.603 14.9639 90.3306 15.2626 91.8804 15.86C93.4303 16.4573 94.7622 17.2968 95.8762 18.3785C96.9902 19.4602 97.8539 20.776 98.4675 22.3259C99.0809 23.8758 99.3876 25.5871 99.3876 27.4598ZM82.4358 27.4598C82.4358 29.4295 82.8152 30.9391 83.574 31.9884C84.3328 33.0378 85.3903 33.5626 86.7464 33.5626C88.1026 33.5626 89.1439 33.0298 89.8704 31.9643C90.5969 30.8987 90.9602 29.3972 90.9602 27.4598C90.9602 25.5225 90.5889 24.0291 89.8462 22.9798C89.1035 21.9303 88.0542 21.4056 86.698 21.4056C85.3419 21.4056 84.2924 21.9303 83.5498 22.9798C82.8071 24.0291 82.4358 25.5225 82.4358 27.4598Z" fill="#1E2F67"/>
<path fill-rule="evenodd" clip-rule="evenodd" d="M121.682 32.0127C121.262 32.3678 120.721 32.6503 120.059 32.8602C119.397 33.0701 118.63 33.1751 117.759 33.1751C116.596 33.1751 115.636 33.0298 114.877 32.7391C114.118 32.4486 113.626 31.948 113.4 31.2377C112.495 28.3962 111.753 26.0956 111.172 24.3358C110.59 22.5761 110.138 21.0342 109.815 19.7104H109.573C109.476 21.6154 109.404 23.351 109.355 24.917C109.307 26.4831 109.275 28.0088 109.258 29.4941C109.242 30.9794 109.21 32.4808 109.162 33.9984C109.113 35.516 109.04 37.195 108.944 39.0356C108.524 39.197 107.975 39.3342 107.297 39.4472C106.619 39.5603 105.941 39.6168 105.263 39.6168C103.842 39.6168 102.736 39.3907 101.945 38.9387C101.154 38.4866 100.758 37.6632 100.758 36.4686L102.163 11.7673C102.421 11.3474 102.986 10.8954 103.858 10.4111C104.73 9.92671 105.957 9.68457 107.539 9.68457C109.25 9.68457 110.59 9.95099 111.559 10.4838C112.528 11.0165 113.238 11.8802 113.69 13.0749C113.981 13.8499 114.296 14.7379 114.635 15.7388C114.974 16.7398 115.313 17.7731 115.652 18.8386C115.991 19.9041 116.322 20.9616 116.645 22.011C116.968 23.0604 117.258 24.0048 117.516 24.8444H117.759C118.533 22.1321 119.309 19.5086 120.083 16.9739C120.858 14.4391 121.569 12.3161 122.214 10.6048C122.699 10.3465 123.32 10.1285 124.079 9.95099C124.838 9.77337 125.686 9.68457 126.622 9.68457C128.204 9.68457 129.496 9.91862 130.497 10.3869C131.498 10.8551 132.079 11.5251 132.24 12.3969C132.369 13.0427 132.507 14.0356 132.652 15.3756C132.797 16.7155 132.951 18.2251 133.112 19.9041C133.274 21.5832 133.435 23.3591 133.597 25.2319C133.758 27.1046 133.911 28.9048 134.057 30.6323C134.202 32.3597 134.323 33.9419 134.42 35.3788C134.517 36.8156 134.581 37.9216 134.614 38.6965C134.065 39.0194 133.492 39.2535 132.894 39.3988C132.297 39.5441 131.53 39.6168 130.594 39.6168C129.367 39.6168 128.333 39.4069 127.494 38.9871C126.654 38.5673 126.202 37.744 126.138 36.517C125.944 32.9974 125.823 29.8331 125.774 27.024C125.726 24.2147 125.653 21.8577 125.556 19.9526H125.314C124.991 21.2119 124.523 22.794 123.91 24.6991C123.296 26.6041 122.554 29.042 121.682 32.0127Z" fill="#A1C93A"/>
<path fill-rule="evenodd" clip-rule="evenodd" d="M160.851 33.1511C157.731 39.3519 149.744 41.4833 143.475 39.1325C141.925 38.5513 140.593 37.7198 139.479 36.6381C138.365 35.5564 137.502 34.2406 136.888 32.6908C136.274 31.1408 135.968 29.3972 135.968 27.4598C135.968 25.5548 136.274 23.8274 136.888 22.2774C137.502 20.7276 138.365 19.4118 139.479 18.3301C140.852 16.9973 143.754 15.7078 145.68 15.3647L145.832 18.7326L144.563 19.2892L144.57 22.971L142.964 23.7297L143.257 30.853C149.463 29.9848 155.96 27.2736 161.497 22.6149C162.71 26.1819 161.578 31.7064 160.851 33.1511Z" fill="#1E2F67"/>
<path fill-rule="evenodd" clip-rule="evenodd" d="M180.037 24.3117C180.037 23.3106 179.755 22.5761 179.19 22.1079C178.625 21.6397 177.858 21.4056 176.889 21.4056C176.243 21.4056 175.605 21.4864 174.976 21.6478C174.346 21.8093 173.805 22.0514 173.353 22.3743V39.1809C173.03 39.2778 172.522 39.3746 171.828 39.4715C171.134 39.5684 170.415 39.6168 169.672 39.6168C168.962 39.6168 168.324 39.5684 167.759 39.4715C167.194 39.3746 166.718 39.1809 166.33 38.8903C165.943 38.5997 165.644 38.2041 165.434 37.7037C165.225 37.2032 165.12 36.5493 165.12 35.7421V21.2119C165.12 20.34 165.305 19.6297 165.677 19.0808C166.048 18.5319 166.557 18.0314 167.202 17.5793C168.3 16.8044 169.68 16.1748 171.343 15.6904C173.006 15.2061 174.855 14.9639 176.889 14.9639C180.538 14.9639 183.347 15.763 185.317 17.3614C187.286 18.9597 188.271 21.1797 188.271 24.021V39.1809C187.948 39.2778 187.44 39.3746 186.745 39.4715C186.051 39.5684 185.333 39.6168 184.59 39.6168C183.88 39.6168 183.242 39.5684 182.677 39.4715C182.112 39.3746 181.636 39.1809 181.248 38.8903C180.861 38.5997 180.562 38.2041 180.352 37.7037C180.142 37.2032 180.037 36.5493 180.037 35.7421V24.3117Z" fill="#A1C93A"/>
<path fill-rule="evenodd" clip-rule="evenodd" d="M190.991 9.15178C190.991 7.9248 191.448 6.89151 192.362 6.05198C193.276 5.21249 194.486 4.79272 195.991 4.79272C197.497 4.79272 198.706 5.21249 199.62 6.05198C200.534 6.89151 200.991 7.9248 200.991 9.15178C200.991 10.3788 200.534 11.412 199.62 12.2515C198.706 13.0911 197.497 13.5108 195.991 13.5108C194.486 13.5108 193.276 13.0911 192.362 12.2515C191.448 11.412 190.991 10.3788 190.991 9.15178ZM200.561 39.1808C200.167 39.2454 199.584 39.3342 198.814 39.4472C198.043 39.5603 197.264 39.6168 196.475 39.6168C195.687 39.6168 194.979 39.5683 194.351 39.4714C193.724 39.3746 193.196 39.1808 192.765 38.8902C192.335 38.5996 192.004 38.2041 191.771 37.7036C191.538 37.2031 191.421 36.5492 191.421 35.7421V16.0294C191.816 15.9649 192.398 15.876 193.169 15.763C193.939 15.65 194.719 15.5935 195.507 15.5935C196.296 15.5935 197.004 15.642 197.631 15.7388C198.258 15.8357 198.787 16.0294 199.217 16.32C199.647 16.6106 199.979 17.0062 200.212 17.5067C200.445 18.0071 200.561 18.661 200.561 19.4682V39.1808Z" fill="#A1C93A"/>
<path fill-rule="evenodd" clip-rule="evenodd" d="M164.424 15.2949L164.616 17.8082C162.245 19.904 159.89 21.9071 157.426 23.6853L157.495 21.487C159.762 19.7698 162.016 17.7277 164.424 15.2949ZM154.082 25.9003C151.021 27.7385 147.727 29.1793 143.985 30.0026L143.754 24.7063C144.099 24.5959 144.436 24.479 144.765 24.357L144.963 27.7537C148.371 26.7816 151.337 25.4915 154.163 23.7657L154.082 25.9003Z" fill="#A1C93A"/>
<path fill-rule="evenodd" clip-rule="evenodd" d="M164.106 11.5913L164.336 14.255C162.216 16.4598 159.883 18.418 157.538 20.0923L157.604 17.9629C159.786 16.2791 161.914 14.2251 164.106 11.5913ZM154.22 22.2776C150.859 24.3113 147.681 25.7044 145.318 26.3403L145.185 20.5819C145.42 20.5069 145.856 20.3866 146.082 20.3047L146.196 24.0672C149.144 22.924 151.79 21.7373 154.297 20.2241L154.22 22.2776Z" fill="#A1C93A"/>
<path fill-rule="evenodd" clip-rule="evenodd" d="M163.178 0.512695L164.016 10.2771C161.537 13.1056 159.583 15.1768 157.7 16.7987L156.49 10.542C159.025 8.00488 161.17 4.75574 163.178 0.512695ZM161.702 4.39896C162.026 3.97268 162.459 3.9698 162.571 4.49803C162.679 5.00706 162.401 5.6228 162.049 5.8327C161.772 5.99835 161.521 5.85819 161.438 5.54221C161.353 5.21873 161.45 4.73101 161.702 4.39896ZM148.552 19.9502C148.904 19.7798 149.277 19.9098 149.367 20.2445C149.455 20.5748 149.226 20.9548 148.874 21.091C148.54 21.2205 148.21 21.0825 148.122 20.7851C148.033 20.484 148.218 20.1118 148.552 19.9502ZM148.334 16.888C148.686 16.7176 149.059 16.8476 149.148 17.1823C149.236 17.5126 149.007 17.8927 148.655 18.0289C148.321 18.1583 147.991 18.0203 147.903 17.723C147.814 17.4218 147.999 17.0496 148.334 16.888ZM161.794 9.00642C162.217 8.44906 162.783 8.44524 162.93 9.13584C163.071 9.80127 162.708 10.6062 162.248 10.8806C161.885 11.0971 161.557 10.9138 161.448 10.5009C161.338 10.078 161.464 9.44044 161.794 9.00642ZM154.257 19.3202C152.207 20.5644 149.934 21.5207 146.92 22.5403L146.644 16.6046C149.264 15.6541 151.545 14.4948 153.581 13.0241L154.257 19.3202Z" fill="#A1C93A"/>
<path fill-rule="evenodd" clip-rule="evenodd" d="M148.552 19.9501C148.904 19.7797 149.277 19.9097 149.367 20.2444C149.455 20.5747 149.226 20.9547 148.874 21.0909C148.54 21.2204 148.21 21.0824 148.122 20.785C148.033 20.4839 148.218 20.1117 148.552 19.9501Z" fill="#FEFEFE"/>
<path fill-rule="evenodd" clip-rule="evenodd" d="M16.0411 19.6719C16.353 19.1489 16.6385 18.6853 17.2533 18.4018C19.339 17.4396 21.4638 19.659 22.3299 21.2499C22.4484 21.4673 24.5334 25.1238 24.5334 25.1238C24.5334 25.1238 30.9128 36.2001 31.374 36.9093C32.6674 38.8981 33.0476 39.4886 36.404 39.547C39.0018 39.5922 41.5181 39.5922 44.1035 39.5107C47.2158 39.4127 46.7131 37.8101 45.607 35.9227L26.1061 2.16302C26.1061 2.16302 25.0576 0.800049 23.2753 0.800049C20.9687 0.800049 20.2348 1.95333 20.2348 1.95333C20.2348 1.95333 0 36.2467 0 37.0503C0 38.4709 1.3959 39.5811 2.81003 39.5921C4.22898 39.6034 4.91681 38.7661 5.45187 38.0195L16.0411 19.6719Z" fill="#1E2F67"/>
<path fill-rule="evenodd" clip-rule="evenodd" d="M1.42785 29.4911C0.897511 27.803 0.771095 27.9253 2.06222 27.0093C3.91998 25.6916 8.72719 22.1864 9.31804 21.9315C9.9898 21.641 10.3667 21.6687 10.6231 22.2199C10.8697 22.7507 11.0526 23.4364 11.3244 24.0442C11.5659 24.5841 12.5621 27.0933 13.3464 27.6983C13.8203 28.0637 14.3039 28.2182 14.8013 28.0871C15.4024 27.9284 20.2484 24.5581 21.2943 23.9618C21.5764 23.8012 21.8599 23.6415 22.1449 23.4834C24.963 21.9206 27.9306 20.4895 31.1032 19.2422C31.3692 19.1377 31.6377 19.0336 31.9075 18.9316C33.5633 18.304 35.6218 17.6418 37.3878 17.3092C37.8241 17.2272 38.2226 17.1806 38.579 17.1656C41.2133 17.0548 41.2035 17.8907 39.1066 18.9391C25.2672 25.4394 14.7447 35.6116 12.7918 37.2228C11.0877 38.3909 9.33834 38.8997 7.48979 37.9406C6.17304 37.2584 2.0688 31.5319 1.42785 29.4911Z" fill="#98C93C"/>
</svg>
