<svg width="30" height="31" viewBox="0 0 30 31" fill="none" xmlns="http://www.w3.org/2000/svg">
<g id="Group 27">
<path id="Combined Shape" fill-rule="evenodd" clip-rule="evenodd" d="M5 0.5C2.23858 0.5 0 2.73858 0 5.5V25.5C0 28.2614 2.23858 30.5 5 30.5H25C27.7614 30.5 30 28.2614 30 25.5V5.5C30 2.73858 27.7614 0.5 25 0.5H5ZM15.155 13.4543C13.0272 13.2791 11.0691 12.2415 9.74924 10.5896C9.00391 11.8004 9.26894 13.3654 10.373 14.2728C9.93363 14.2195 9.50952 14.0803 9.1255 13.8636C9.30526 15.1091 10.1942 16.1431 11.4126 16.5237C11.0138 16.6698 10.5904 16.7393 10.1651 16.7283C10.6347 17.7116 11.5694 18.4016 12.66 18.57C11.461 19.2552 10.0961 19.6087 8.70968 19.5931C10.0064 20.4254 11.5281 20.8533 13.0759 20.8209C15.1539 20.7686 17.122 19.8909 18.532 18.3875C19.942 16.8842 20.6738 14.8833 20.5607 12.8405C21.2188 12.5706 21.7419 12.0558 22.0161 11.4081C21.5805 11.6781 21.0756 11.8201 20.5607 11.8173C21.0624 11.4698 21.429 10.9647 21.6003 10.3849C21.132 10.7682 20.5459 10.9845 19.937 10.9988C19.3968 10.443 18.6385 10.1445 17.8579 10.1803C17.0186 10.1579 16.2164 10.5207 15.6869 11.162C15.1575 11.8033 14.9609 12.6504 15.155 13.4543Z" fill="white"/>
</g>
</svg>
